<svg width="242" height="44" viewBox="0 0 242 44" fill="none" xmlns="http://www.w3.org/2000/svg">
<g filter="url(#filter0_dd_218_233)">
<path d="M28.1752 35.48C25.7352 35.48 23.5352 35.32 21.4952 34.96C19.4552 34.6 17.7352 34.16 16.3752 33.6C14.9752 33 13.7752 32.32 12.6952 31.52C11.6152 30.68 10.7752 29.88 10.1752 29.04C9.57516 28.2 9.09516 27.32 8.69516 26.36C8.29516 25.4 8.01516 24.52 7.89516 23.76C7.77516 22.96 7.73516 22.2 7.73516 21.44V20.32C7.73516 19.12 7.85516 17.96 8.09516 16.88C8.33516 15.8 8.89516 14.6 9.73516 13.28C10.6152 11.96 11.7352 10.8 13.1352 9.84C14.5352 8.88 16.5352 8.08 19.1352 7.44C21.6952 6.76 24.7352 6.44 28.1752 6.44H29.8552C33.2552 6.44 36.2152 6.72 38.8152 7.28C41.3752 7.88 43.3752 8.56 44.7752 9.36C46.1752 10.2 47.3352 11.12 48.2152 12.2C49.1352 13.28 49.6952 14.24 49.9752 15.08C50.2152 15.92 50.3352 16.72 50.3352 17.48V17.92H40.1752C40.0952 17.6 40.0152 17.36 39.8952 17.12C39.7752 16.88 39.4552 16.48 38.9352 15.96C38.4152 15.44 37.8152 15 37.0952 14.64C36.3752 14.28 35.2952 13.96 33.8952 13.68C32.4552 13.4 30.8552 13.24 29.0152 13.24C26.8152 13.24 24.9352 13.44 23.4152 13.88C21.8552 14.28 20.6952 14.84 19.8952 15.56C19.1352 16.32 18.5752 17.08 18.2552 17.88C17.8952 18.68 17.7352 19.56 17.7352 20.52V20.96C17.7352 21.88 17.9352 22.76 18.2952 23.6C18.6552 24.44 19.2552 25.24 20.0552 26.04C20.8552 26.84 22.0152 27.48 23.5752 27.96C25.1352 28.44 26.9752 28.68 29.0952 28.68C35.3752 28.68 39.0552 27.04 40.1752 23.8C40.2152 23.76 40.2152 23.72 40.2152 23.68H50.3752V24.08C50.3752 24.92 50.2552 25.8 49.9752 26.68C49.6552 27.56 49.0552 28.52 48.1752 29.64C47.2552 30.72 46.0952 31.68 44.6552 32.52C43.2552 33.32 41.2552 34.04 38.6952 34.64C36.1352 35.2 33.1752 35.48 29.8552 35.48H28.1752ZM54.0133 6.96H144.573V13.32H63.4533V17.48H144.013V23.88H63.4533V28.48H144.973V35H54.0133V6.96ZM158.729 25.12V35.04H149.209V7.04H173.809C182.649 7.04 187.049 9.48 187.049 14.32V14.76C187.049 17.72 185.169 19.76 181.369 20.88C183.089 21.32 184.489 22.08 185.569 23.16C186.649 24.24 187.169 25.6 187.169 27.32V31.44C187.169 33.12 187.169 35.04 187.169 35.04H177.569C177.569 35.04 177.569 34.08 177.569 33.28V30.04C177.569 28.28 177.089 27.04 176.129 26.28C175.169 25.48 173.529 25.12 171.209 25.12H158.729ZM158.729 13.4V18.88H173.209C174.529 18.88 175.489 18.64 176.129 18.16C176.769 17.64 177.089 16.96 177.089 16.16V16.12C177.089 15.32 176.769 14.64 176.129 14.16C175.489 13.64 174.529 13.4 173.209 13.4H158.729ZM229.195 35L226.355 29.88H201.435L198.675 35H188.955L204.395 6.96H223.155L239.515 35H229.195ZM217.115 13.4H210.315L204.835 23.52H222.795L217.115 13.4Z" fill="url(#paint0_linear_218_233)"/>
</g>
<defs>
<filter id="filter0_dd_218_233" x="0.435168" y="0.440002" width="241.08" height="43.34" filterUnits="userSpaceOnUse" color-interpolation-filters="sRGB">
<feFlood flood-opacity="0" result="BackgroundImageFix"/>
<feColorMatrix in="SourceAlpha" type="matrix" values="0 0 0 0 0 0 0 0 0 0 0 0 0 0 0 0 0 0 127 0" result="hardAlpha"/>
<feOffset dx="-2" dy="-2"/>
<feGaussianBlur stdDeviation="2"/>
<feComposite in2="hardAlpha" operator="out"/>
<feColorMatrix type="matrix" values="0 0 0 0 1 0 0 0 0 1 0 0 0 0 1 0 0 0 0.25 0"/>
<feBlend mode="normal" in2="BackgroundImageFix" result="effect1_dropShadow_218_233"/>
<feColorMatrix in="SourceAlpha" type="matrix" values="0 0 0 0 0 0 0 0 0 0 0 0 0 0 0 0 0 0 127 0" result="hardAlpha"/>
<feOffset dx="-3" dy="4"/>
<feGaussianBlur stdDeviation="2.15"/>
<feComposite in2="hardAlpha" operator="out"/>
<feColorMatrix type="matrix" values="0 0 0 0 0 0 0 0 0 0 0 0 0 0 0 0 0 0 0.25 0"/>
<feBlend mode="normal" in2="effect1_dropShadow_218_233" result="effect2_dropShadow_218_233"/>
<feBlend mode="normal" in="SourceGraphic" in2="effect2_dropShadow_218_233" result="shape"/>
</filter>
<linearGradient id="paint0_linear_218_233" x1="117" y1="-3.5" x2="117" y2="97.5" gradientUnits="userSpaceOnUse">
<stop stop-color="#FED600"/>
<stop offset="1" stop-color="#72BBEC"/>
</linearGradient>
</defs>
</svg>
